#!OML:ASF I:\Actors\actors\Patient Classification 2\Patient 1\Session 1\actor1.ASF
:FULLY-SPECIFIED
:DEGREES
581
root -0.755929 18.7205 6.57144 12.6584 -0.0798058 -1.63492
lowerback 7.56453 -1.1106 4.9138
upperback -2.18447 -0.800954 2.96439
thorax -6.57663 -0.526405 0.454058
lowerneck -8.36235 -5.86892 -3.04605
upperneck 16.5129 -6.18445 -8.2143
head 6.23678 -3.8247 -2.59064
rclavicle 6.75868e-015 -3.97569e-014
rhumerus -84.7039 12.4241 -95.2967
rradius 106.349
rwrist 1.18998
rhand 4.05183 -25.1737
rfingers 7.12502
rthumb 29.4652 -52.8565
lclavicle 6.75868e-015 -3.97569e-014
lhumerus -84.4545 -21.4958 109.02
lradius 104.479
lwrist 16.4528
lhand -11.4896 -23.79
lfingers 7.12502
lthumb 14.5488 5.67978
rfemur -2.49115 -2.79158 15.737
rtibia 6.36111e-015
rfoot -16.1389 -11.4384
rtoes -11.157
lfemur -20.7431 3.72212 -11.8536
ltibia 30.7707
lfoot -18.0027 3.52366
ltoes -57.8198
582
root -0.751246 18.7302 6.57912 12.4798 0.0390479 -1.71448
lowerback 7.57242 -1.063 4.85895
upperback -2.23702 -0.748086 2.82949
thorax -6.63591 -0.502628 0.337304
lowerneck -8.48728 -5.75239 -3.06
upperneck 16.8615 -6.07239 -7.73396
head 6.38843 -3.74453 -2.44415
rclavicle 1.09332e-014 -8.74653e-015
rhumerus -84.7478 12.4774 -95.3933
rradius 106.227
rwrist 1.26301
rhand 4.1993 -25.0242
rfingers 7.12502
rthumb 29.606 -52.6821
lclavicle 1.09332e-014 -8.74653e-015
lhumerus -84.3689 -21.5495 108.775
lradius 104.846
lwrist 15.5977
lhand -11.0935 -22.0629
lfingers 7.12502
lthumb 14.9304 7.37898
rfemur -2.24673 -2.91018 15.8108
rtibia -3.18055e-015
rfoot -16.0071 -11.4936
rtoes -11.1758
lfemur -20.6302 3.80806 -11.7344
ltibia 30.9082
lfoot -17.7452 3.20274
ltoes -58.0526
583
root -0.744103 18.74 6.58593 12.3019 0.123915 -1.84303
lowerback 7.53935 -1.006 4.73912
upperback -2.24775 -0.695221 2.68314
thorax -6.62592 -0.475086 0.242986
lowerneck -8.57889 -5.68696 -3.07494
upperneck 17.0713 -6.0596 -7.15563
head 6.4903 -3.69898 -2.26745
rclavicle -6.75868e-015 1.59028e-015
rhumerus -84.7678 12.5689 -95.5083
rradius 106.149
rwrist 1.34208
rhand 4.32888 -24.8994
rfingers 7.12502
rthumb 29.7296 -52.5353
lclavicle -6.75868e-015 1.59028e-015
lhumerus -84.239 -21.5608 108.558
lradius 104.986
lwrist 15.3494
lhand -10.8407 -21.4811
lfingers 7.12502
lthumb 15.174 7.94258
rfemur -2.02294 -2.98706 15.9135
rtibia 1.74931e-014
rfoot -15.9121 -11.5167
rtoes -10.941
lfemur -20.4904 3.75807 -11.5773
ltibia 31.031
lfoot -17.6047 3.11383
ltoes -58.08
584
root -0.734464 18.7456 6.59285 12.1237 0.0932434 -2.03248
lowerback 7.48912 -0.913058 4.56355
upperback -2.24338 -0.60325 2.51393
thorax -6.58797 -0.426068 0.150178
lowerneck -8.58106 -5.68405 -3.08442
upperneck 17.1847 -6.13753 -6.6247
head 6.54207 -3.69627 -2.10711
rclavicle -1.37161e-014 1.82882e-014
rhumerus -84.7895 12.6119 -95.6694
rradius 106.052
rwrist 1.38229
rhand 4.45794 -24.8931
rfingers 7.12502
rthumb 29.8528 -52.5069
lclavicle -1.37161e-014 1.82882e-014
lhumerus -84.1865 -21.5464 108.441
lradius 104.906
lwrist 15.7219
lhand -10.9541 -22.2886
lfingers 7.12502
lthumb 15.0647 7.14327
rfemur -1.83232 -2.93986 16.0475
rtibia 2.8625e-014
rfoot -15.8237 -11.5435
rtoes -10.6533
lfemur -20.3086 3.66563 -11.3906
ltibia 31.124
lfoot -17.6098 3.2499
ltoes -58.0638
585
root -0.723556 18.7465 6.59795 11.937 -0.00747683 -2.29915
lowerback 7.51863 -0.810049 4.3355
upperback -2.24473 -0.496692 2.35558
thorax -6.60067 -0.368254 0.0978854
lowerneck -8.5395 -5.73971 -3.15869
upperneck 17.3015 -6.29717 -6.04775
head 6.59054 -3.73238 -1.92696
rclavicle 6.65929e-015 -7.95139e-015
rhumerus -84.8635 12.6695 -95.8201
rradius 105.984
rwrist 1.35663
rhand 4.54778 -24.9147
rfingers 7.12502
rthumb 29.9385 -52.5131
lclavicle 6.65929e-015 -7.95139e-015
lhumerus -84.2565 -21.4628 108.44
lradius 104.624
lwrist 16.6301
lhand -11.5455 -24.2538
lfingers 7.12502
lthumb 14.495 5.2199
rfemur -1.65314 -2.80775 16.2555
rtibia 3.18055e-015
rfoot -15.6647 -11.5954
rtoes -10.6099
lfemur -20.0856 3.54598 -11.1462
ltibia 31.1778
lfoot -17.7633 3.56028
ltoes -58.1015
